# xmcd
#
# Track frame offsets: 
#        150
#        14812
#        29237
#        43712
#        53200
#        69987
#        82325
#        97437
#        113612
#        131025
#        148737
#        161262
#        176237
#        190725
#        205425
#        226312
#        246137
#        258837
#        273987
#        287337
#
# Disc length: 4015 seconds
#
# Revision: 0
# Processed by: cddbd v1.5.2PL0 Copyright (c) Steve Scherf et al.
# Submitted via: ExactAudioCopy v0.95a5
#
DISCID=320fad14
DTITLE=Various Artist - 往日情懷之經典金曲精選第三輯
DYEAR=1900
DGENRE=Country
TTITLE0=海鷗_劉家昌
TTITLE1=雲河_黃露儀
TTITLE2=我的小妹_江玲
TTITLE3=詩意_蕭麗珠
TTITLE4=我是一片雲_鳳飛飛
TTITLE5=大眼睛_高凌風
TTITLE6=另一種表白_鳳飛飛
TTITLE7=飛向你飛向我_金瑞瑤
TTITLE8=分手_江玲
TTITLE9=一簾幽夢_蕭麗珠
TTITLE10=別說再見_張艾嘉
TTITLE11=歲月的眼睛_金瑞瑤
TTITLE12=綠樹花開情也來_劉文正
TTITLE13=盼與寄_蔡琴
TTITLE14=問雁兒_鳳飛飛
TTITLE15=她的名字是愛_陳淑樺
TTITLE16=月矇矓鳥矇矓_鳳飛飛
TTITLE17=明月寄情_陳淑樺
TTITLE18=昨夜之燈_蔡琴
TTITLE19=只要為你活一天_劉家昌
EXTD=
EXTT0=
EXTT1=
EXTT2=
EXTT3=
EXTT4=
EXTT5=
EXTT6=
EXTT7=
EXTT8=
EXTT9=
EXTT10=
EXTT11=
EXTT12=
EXTT13=
EXTT14=
EXTT15=
EXTT16=
EXTT17=
EXTT18=
EXTT19=
PLAYORDER=
